<svg width="28" height="28" viewBox="0 0 28 28" fill="none" xmlns="http://www.w3.org/2000/svg">
<rect x="0.430176" y="0.0878906" width="27.4983" height="27.4983" rx="13.7492" fill="#707070" fill-opacity="0.25"/>
<path d="M7.86977 6.63672C7.37781 6.63672 6.979 7.03977 6.979 7.53696V9.33745C6.979 15.8009 12.1635 21.0406 18.559 21.0406H20.3405C20.8325 21.0406 21.2313 20.6375 21.2313 20.1404V18.2022C21.2313 17.7622 20.9165 17.3866 20.4869 17.3143L16.5356 16.6487C16.1499 16.5837 15.7673 16.7806 15.5924 17.1341L14.9029 18.5278C12.432 17.5228 10.4597 15.5296 9.46536 13.0324L10.8444 12.3355C11.1942 12.1588 11.389 11.7722 11.3247 11.3823L10.6661 7.38896C10.5945 6.95488 10.2229 6.63672 9.78748 6.63672H7.86977Z" fill="#1B353D"/>
<path d="M14.56 7.40288C13.7226 7.40288 13.0438 7.96419 13.0438 8.6566V11.164C13.0438 11.8565 13.7226 12.4178 14.56 12.4178H16.0762V14.2984L18.3505 12.4178H19.8667C20.7041 12.4178 21.3829 11.8565 21.3829 11.164V8.6566C21.3829 7.96419 20.7041 7.40288 19.8667 7.40288H14.56Z" fill="#1B353D"/>
</svg>
