<svg width="60" height="60" viewBox="0 0 60 60" fill="none" xmlns="http://www.w3.org/2000/svg">
<g filter="url(#filter0_b_3913_2324)">
<rect width="60" height="60" rx="30" fill="black" fill-opacity="0.2"/>
<path fill-rule="evenodd" clip-rule="evenodd" d="M37.5996 38L25.5996 30L37.5996 22C37.7572 21.895 37.8926 21.7599 37.998 21.6025C38.1034 21.4452 38.1767 21.2686 38.2139 21.0829C38.251 20.8971 38.2512 20.7059 38.2144 20.5201C38.1777 20.3343 38.1047 20.1576 37.9996 20C37.8946 19.8424 37.7595 19.7071 37.6021 19.6017C37.4448 19.4963 37.2682 19.4229 37.0825 19.3858C36.8968 19.3487 36.7056 19.3485 36.5198 19.3852C36.334 19.422 36.1572 19.495 35.9996 19.6L22.3964 28.6688C22.1773 28.8149 21.9976 29.0129 21.8734 29.2451C21.7491 29.4773 21.6841 29.7366 21.6841 30C21.6841 30.2634 21.7491 30.5227 21.8734 30.7549C21.9976 30.9871 22.1773 31.1851 22.3964 31.3312L35.9996 40.4C36.1572 40.5051 36.334 40.5781 36.5198 40.6148C36.7056 40.6516 36.8968 40.6514 37.0825 40.6142C37.2682 40.5771 37.4448 40.5037 37.6021 40.3983C37.7595 40.2929 37.8946 40.1576 37.9996 40C38.1047 39.8424 38.1777 39.6657 38.2144 39.4799C38.2512 39.2941 38.251 39.1029 38.2139 38.9172C38.1767 38.7314 38.1034 38.5549 37.998 38.3975C37.8926 38.2401 37.7572 38.1051 37.5996 38Z" fill="white"/>
</g>
<defs>
<filter id="filter0_b_3913_2324" x="-15" y="-15" width="90" height="90" filterUnits="userSpaceOnUse" color-interpolation-filters="sRGB">
<feFlood flood-opacity="0" result="BackgroundImageFix"/>
<feGaussianBlur in="BackgroundImageFix" stdDeviation="7.5"/>
<feComposite in2="SourceAlpha" operator="in" result="effect1_backgroundBlur_3913_2324"/>
<feBlend mode="normal" in="SourceGraphic" in2="effect1_backgroundBlur_3913_2324" result="shape"/>
</filter>
</defs>
</svg>
