<svg width="60" height="60" viewBox="0 0 60 60" fill="none" xmlns="http://www.w3.org/2000/svg">
<g filter="url(#filter0_b_3913_2321)">
<rect width="60" height="60" rx="30" transform="matrix(-1 0 0 1 60 0)" fill="black" fill-opacity="0.2"/>
<path fill-rule="evenodd" clip-rule="evenodd" d="M22.4004 38L34.4004 30L22.4004 22C22.2428 21.895 22.1074 21.7599 22.002 21.6025C21.8966 21.4452 21.8233 21.2686 21.7861 21.0829C21.749 20.8971 21.7488 20.7059 21.7856 20.5201C21.8223 20.3343 21.8953 20.1576 22.0004 20C22.1054 19.8424 22.2405 19.7071 22.3979 19.6017C22.5552 19.4963 22.7318 19.4229 22.9175 19.3858C23.1032 19.3487 23.2944 19.3485 23.4802 19.3852C23.666 19.422 23.8428 19.495 24.0004 19.6L37.6036 28.6688C37.8227 28.8149 38.0024 29.0129 38.1266 29.2451C38.2509 29.4773 38.3159 29.7366 38.3159 30C38.3159 30.2634 38.2509 30.5227 38.1266 30.7549C38.0024 30.9871 37.8227 31.1851 37.6036 31.3312L24.0004 40.4C23.8428 40.5051 23.666 40.5781 23.4802 40.6148C23.2944 40.6516 23.1032 40.6514 22.9175 40.6142C22.7318 40.5771 22.5552 40.5037 22.3979 40.3983C22.2405 40.2929 22.1054 40.1576 22.0004 40C21.8953 39.8424 21.8223 39.6657 21.7856 39.4799C21.7488 39.2941 21.749 39.1029 21.7861 38.9172C21.8233 38.7314 21.8966 38.5549 22.002 38.3975C22.1074 38.2401 22.2428 38.1051 22.4004 38Z" fill="white"/>
</g>
<defs>
<filter id="filter0_b_3913_2321" x="-15" y="-15" width="90" height="90" filterUnits="userSpaceOnUse" color-interpolation-filters="sRGB">
<feFlood flood-opacity="0" result="BackgroundImageFix"/>
<feGaussianBlur in="BackgroundImageFix" stdDeviation="7.5"/>
<feComposite in2="SourceAlpha" operator="in" result="effect1_backgroundBlur_3913_2321"/>
<feBlend mode="normal" in="SourceGraphic" in2="effect1_backgroundBlur_3913_2321" result="shape"/>
</filter>
</defs>
</svg>
